<svg xmlns="http://www.w3.org/2000/svg" xmlns:xlink="http://www.w3.org/1999/xlink" width="1264" zoomAndPan="magnify" viewBox="0 0 948 947.999989" height="1264" preserveAspectRatio="xMidYMid meet" version="1.0"><defs><g/><clipPath id="eae6ebf083"><rect x="0" width="744" y="0" height="423"/></clipPath></defs><g transform="matrix(1, 0, 0, 1, 102, 261)"><g clip-path="url(#eae6ebf083)"><g fill="#c4714a" fill-opacity="1"><g transform="translate(1.297053, 312.817351)"><g><path d="M 98.71875 3.078125 C 89.675781 3.078125 80.628906 2.410156 71.578125 1.078125 C 62.523438 -0.253906 53.988281 -2.304688 45.96875 -5.078125 C 37.945312 -7.859375 30.75 -11.304688 24.375 -15.421875 C 20.664062 -17.890625 18.09375 -20.875 16.65625 -24.375 C 15.21875 -27.875 14.753906 -31.316406 15.265625 -34.703125 C 15.785156 -38.097656 17.125 -41.082031 19.28125 -43.65625 C 21.4375 -46.226562 24.160156 -47.820312 27.453125 -48.4375 C 30.742188 -49.050781 34.34375 -48.125 38.25 -45.65625 C 47.300781 -40.3125 56.863281 -36.40625 66.9375 -33.9375 C 77.019531 -31.46875 87.613281 -30.234375 98.71875 -30.234375 C 114.96875 -30.234375 126.796875 -32.957031 134.203125 -38.40625 C 141.609375 -43.851562 145.3125 -50.898438 145.3125 -59.546875 C 145.3125 -66.742188 142.6875 -72.398438 137.4375 -76.515625 C 132.195312 -80.628906 123.203125 -84.019531 110.453125 -86.6875 L 76.515625 -93.78125 C 56.972656 -97.894531 42.421875 -104.835938 32.859375 -114.609375 C 23.296875 -124.378906 18.515625 -137.285156 18.515625 -153.328125 C 18.515625 -163.410156 20.566406 -172.5625 24.671875 -180.78125 C 28.785156 -189.007812 34.597656 -196.109375 42.109375 -202.078125 C 49.617188 -208.046875 58.566406 -212.625 68.953125 -215.8125 C 79.335938 -219 90.804688 -220.59375 103.359375 -220.59375 C 115.691406 -220.59375 127.410156 -219.046875 138.515625 -215.953125 C 149.628906 -212.867188 159.609375 -208.347656 168.453125 -202.390625 C 171.742188 -200.128906 173.953125 -197.351562 175.078125 -194.0625 C 176.210938 -190.769531 176.46875 -187.53125 175.84375 -184.34375 C 175.226562 -181.15625 173.789062 -178.425781 171.53125 -176.15625 C 169.269531 -173.894531 166.441406 -172.554688 163.046875 -172.140625 C 159.648438 -171.734375 155.796875 -172.765625 151.484375 -175.234375 C 143.867188 -179.554688 136.15625 -182.640625 128.34375 -184.484375 C 120.53125 -186.335938 112.097656 -187.265625 103.046875 -187.265625 C 93.585938 -187.265625 85.460938 -185.925781 78.671875 -183.25 C 71.878906 -180.582031 66.679688 -176.832031 63.078125 -172 C 59.484375 -167.164062 57.6875 -161.457031 57.6875 -154.875 C 57.6875 -147.46875 60.15625 -141.550781 65.09375 -137.125 C 70.03125 -132.707031 78.460938 -129.265625 90.390625 -126.796875 L 124.015625 -119.703125 C 144.378906 -115.378906 159.550781 -108.585938 169.53125 -99.328125 C 179.507812 -90.078125 184.5 -77.738281 184.5 -62.3125 C 184.5 -52.445312 182.488281 -43.503906 178.46875 -35.484375 C 174.457031 -27.460938 168.695312 -20.570312 161.1875 -14.8125 C 153.6875 -9.050781 144.691406 -4.628906 134.203125 -1.546875 C 123.710938 1.535156 111.882812 3.078125 98.71875 3.078125 Z M 98.71875 3.078125 "/></g></g></g><g fill="#c4714a" fill-opacity="1"><g transform="translate(195.954352, 312.817351)"><g><path d="M 43.5 2.46875 C 37.125 2.46875 32.238281 0.671875 28.84375 -2.921875 C 25.445312 -6.523438 23.75 -11.515625 23.75 -17.890625 L 23.75 -199.609375 C 23.75 -206.191406 25.445312 -211.226562 28.84375 -214.71875 C 32.238281 -218.21875 37.125 -219.96875 43.5 -219.96875 C 49.875 -219.96875 54.757812 -218.21875 58.15625 -214.71875 C 61.550781 -211.226562 63.25 -206.191406 63.25 -199.609375 L 63.25 -126.796875 L 175.234375 -126.796875 L 175.234375 -199.609375 C 175.234375 -206.191406 176.929688 -211.226562 180.328125 -214.71875 C 183.722656 -218.21875 188.609375 -219.96875 194.984375 -219.96875 C 201.359375 -219.96875 206.242188 -218.21875 209.640625 -214.71875 C 213.035156 -211.226562 214.734375 -206.191406 214.734375 -199.609375 L 214.734375 -17.890625 C 214.734375 -11.515625 213.035156 -6.523438 209.640625 -2.921875 C 206.242188 0.671875 201.359375 2.46875 194.984375 2.46875 C 188.609375 2.46875 183.722656 0.671875 180.328125 -2.921875 C 176.929688 -6.523438 175.234375 -11.515625 175.234375 -17.890625 L 175.234375 -93.78125 L 63.25 -93.78125 L 63.25 -17.890625 C 63.25 -11.515625 61.601562 -6.523438 58.3125 -2.921875 C 55.019531 0.671875 50.082031 2.46875 43.5 2.46875 Z M 43.5 2.46875 "/></g></g></g><g fill="#c4714a" fill-opacity="1"><g transform="translate(434.417255, 312.817351)"><g><path d="M 25.921875 2.46875 C 20.984375 2.46875 17.019531 1.335938 14.03125 -0.921875 C 11.050781 -3.179688 9.253906 -6.210938 8.640625 -10.015625 C 8.023438 -13.828125 8.742188 -18.097656 10.796875 -22.828125 L 92.25 -203.3125 C 94.914062 -209.28125 98.148438 -213.546875 101.953125 -216.109375 C 105.765625 -218.679688 110.140625 -219.96875 115.078125 -219.96875 C 119.804688 -219.96875 124.070312 -218.679688 127.875 -216.109375 C 131.6875 -213.546875 134.925781 -209.28125 137.59375 -203.3125 L 219.359375 -22.828125 C 221.617188 -18.097656 222.4375 -13.78125 221.8125 -9.875 C 221.195312 -5.96875 219.453125 -2.929688 216.578125 -0.765625 C 213.703125 1.390625 209.894531 2.46875 205.15625 2.46875 C 199.40625 2.46875 194.929688 1.082031 191.734375 -1.6875 C 188.546875 -4.46875 185.722656 -8.738281 183.265625 -14.5 L 163.203125 -61.09375 L 179.859375 -50.28125 L 49.671875 -50.28125 L 66.328125 -61.09375 L 46.578125 -14.5 C 43.910156 -8.53125 41.132812 -4.207031 38.25 -1.53125 C 35.375 1.132812 31.265625 2.46875 25.921875 2.46875 Z M 114.453125 -174.625 L 71.265625 -71.890625 L 63.25 -81.75 L 166.296875 -81.75 L 158.578125 -71.890625 L 115.078125 -174.625 Z M 114.453125 -174.625 "/></g></g></g><g fill="#7a9e7e" fill-opacity="1"><g transform="translate(663.946641, 312.817351)"><g><path d="M 39.1875 2.15625 C 33.007812 2.15625 28.273438 0.304688 24.984375 -3.390625 C 21.691406 -7.097656 20.046875 -12.238281 20.046875 -18.8125 L 20.046875 -132.046875 C 20.046875 -138.828125 21.691406 -144.019531 24.984375 -147.625 C 28.273438 -151.226562 33.007812 -153.03125 39.1875 -153.03125 C 45.351562 -153.03125 50.132812 -151.226562 53.53125 -147.625 C 56.925781 -144.019531 58.625 -138.828125 58.625 -132.046875 L 58.625 -18.8125 C 58.625 -12.238281 56.976562 -7.097656 53.6875 -3.390625 C 50.394531 0.304688 45.5625 2.15625 39.1875 2.15625 Z M 39.1875 -181.71875 C 31.988281 -181.71875 26.378906 -183.515625 22.359375 -187.109375 C 18.347656 -190.710938 16.34375 -195.703125 16.34375 -202.078125 C 16.34375 -208.660156 18.347656 -213.695312 22.359375 -217.1875 C 26.378906 -220.6875 31.988281 -222.4375 39.1875 -222.4375 C 46.582031 -222.4375 52.234375 -220.6875 56.140625 -217.1875 C 60.054688 -213.695312 62.015625 -208.660156 62.015625 -202.078125 C 62.015625 -195.703125 60.054688 -190.710938 56.140625 -187.109375 C 52.234375 -183.515625 46.582031 -181.71875 39.1875 -181.71875 Z M 39.1875 -181.71875 "/></g></g></g></g></g></svg>